<?xml version="1.0" encoding="UTF-8"?>
<!DOCTYPE svg PUBLIC "-//W3C//DTD SVG 1.1//EN" "http://www.w3.org/Graphics/SVG/1.1/DTD/svg11.dtd">
<!-- Creator: CorelDRAW X7 -->
<svg xmlns="http://www.w3.org/2000/svg" xml:space="preserve" width="166.208mm" height="78.9819mm" version="1.1" style="shape-rendering:geometricPrecision; text-rendering:geometricPrecision; image-rendering:optimizeQuality; fill-rule:evenodd; clip-rule:evenodd"
viewBox="0 0 16617 7896"
 xmlns:xlink="http://www.w3.org/1999/xlink">
 <defs>
  <style type="text/css">
   <![CDATA[
    .str0 {stroke:black;stroke-width:49.9885}
    .str1 {stroke:black;stroke-width:7.61825}
    .fil0 {fill:none}
    .fil1 {fill:black;fill-rule:nonzero}
   ]]>
  </style>
 </defs>
 <g id="Layer_x0020_1">
  <metadata id="CorelCorpID_0Corel-Layer"/>
  <g id="_280842885216">
   <line class="fil0 str0" x1="6057" y1="5661" x2="16617" y2= "5661" />
   <g>
    <path class="fil1 str1" d="M8329 2761l-252 975 -129 0c12,-43 19,-75 24,-97 25,-98 38,-178 38,-243 0,-92 -33,-149 -101,-174 -67,-24 -229,-36 -485,-36l-538 0 -49 175c-198,737 -417,1352 -658,1845 -241,493 -544,943 -907,1350 -371,419 -790,748 -1261,983 -470,236 -938,354 -1400,354 -525,0 -996,-131 -1416,-391 -374,-230 -668,-555 -876,-974 -210,-421 -315,-889 -315,-1402 0,-681 185,-1225 556,-1635 369,-409 862,-613 1477,-613 689,0 1425,369 2207,1109 262,246 623,644 1084,1194l108 126c113,-230 170,-472 170,-727 0,-396 -148,-723 -442,-983 -295,-261 -683,-405 -1164,-436 58,-115 104,-244 137,-387l2477 -13c18,-71 32,-123 42,-158 102,-412 186,-708 251,-889 65,-180 149,-347 252,-498 191,-288 453,-560 786,-818 340,-262 628,-394 866,-394 47,0 106,5 178,16 -29,207 -99,522 -206,947l-24 103 -130 0c41,-173 61,-294 61,-365 0,-174 -80,-260 -241,-260 -249,0 -490,109 -725,327 -124,116 -220,258 -290,424 -70,167 -164,481 -282,942l-134 526 -24 97 1335 0zm-1813 425l-1597 -13c247,131 446,321 600,572 154,250 230,513 230,786 0,427 -136,899 -408,1416 -661,-910 -1304,-1607 -1929,-2092 -624,-484 -1191,-727 -1702,-727 -442,0 -809,166 -1099,498 -290,333 -435,753 -435,1261 0,773 257,1409 773,1907 517,499 1174,749 1974,749 887,0 1640,-374 2256,-1119 616,-747 1062,-1826 1337,-3238z"/>
    <path class="fil1 str1" d="M8534 5038c-17,94 47,175 143,182 97,7 191,-62 207,-156 17,-97 -46,-180 -143,-187 -97,-6 -189,66 -207,161zm2382 -358c2,-29 -24,-79 -42,-66 -127,153 -580,525 -995,551 -180,13 -319,-94 -332,-226 -70,-602 639,-1562 971,-1584 114,-7 167,44 174,110 26,154 -95,426 -136,536 -7,17 -9,37 13,33 162,-9 452,-385 437,-503 -18,-123 -248,-317 -541,-297 -641,42 -1296,1059 -1234,1613 39,349 540,555 828,511 354,-55 819,-575 857,-678zm1529 -1099c17,136 -154,347 -437,464 -95,39 -200,57 -304,68 126,-273 222,-512 365,-710 176,9 358,49 376,178zm-1444 -261c-32,11 -103,136 -103,173 0,5 2,9 5,9 87,-28 428,-79 819,-94 -114,195 -242,476 -362,744 -14,3 -97,-2 -112,0 -31,31 32,110 61,130 -86,206 -270,688 -270,802 0,53 191,191 285,191 -8,-4 -13,-18 -13,-40 0,-127 191,-656 332,-979l158 -27c84,424 360,1200 461,1274 77,38 326,-118 363,-182 -156,4 -483,-670 -624,-1140 99,-24 191,-48 257,-75 393,-149 567,-360 547,-501 -24,-180 -321,-272 -731,-305 -58,-40 -152,-81 -196,-81 -18,0 -37,11 -48,24 -11,13 -22,26 -31,42 -53,-3 -106,-3 -160,-3 -328,0 -547,27 -638,38zm3289 1360c2,-29 -24,-79 -42,-66 -127,153 -580,525 -995,551 -180,13 -318,-94 -332,-226 -70,-602 640,-1562 971,-1584 115,-7 167,44 174,110 26,154 -94,426 -136,536 -7,17 -9,37 13,33 163,-9 453,-385 437,-503 -17,-123 -248,-317 -540,-297 -642,42 -1296,1059 -1235,1613 40,349 541,555 828,511 354,-55 820,-575 857,-678zm79 -506c128,-26 281,-50 446,-70 -108,250 -360,782 -362,1000 8,54 193,213 279,206 301,-64 799,-130 1239,-136 28,-7 88,-84 74,-108 -151,-24 -764,-24 -1287,24 77,-254 250,-670 404,-1021 328,-26 670,-37 951,-24 25,-16 77,-90 53,-104 -248,-17 -606,-21 -940,-11 99,-208 206,-419 248,-478 255,-33 563,-60 894,-40 24,-13 86,-86 66,-99 -435,-42 -1118,-22 -1335,-9 -38,20 0,123 26,176 -66,117 -154,288 -237,468 -165,11 -308,26 -411,46 -51,29 -132,156 -108,180z"/>
    <path class="fil1 str1" d="M16589 2826l-118 330c-83,-17 -7319,-25 -7382,-25 -254,0 -525,195 -814,583 -135,186 -251,387 -349,605 -97,218 -217,552 -361,999l-37 111c-141,31 -277,68 -406,112l37 -99 290 -766c274,-737 411,-1171 411,-1302 0,-68 -72,-285 -132,-285 -33,0 -107,29 -222,87l-43 -101c306,-149 623,-131 865,-312 10,39 16,75 16,109 0,167 -76,448 -229,841l79 -92c509,-559 869,-839 1082,-839 45,0 7258,15 7313,44z"/>
   </g>
   <line class="fil0 str0" x1="6057" y1="7407" x2="16594" y2= "7407" />
   <path class="fil1" d="M6073 7605l84 0 69 208 70 -208 83 0 0 271 -56 0 5 -211 -70 211 -60 0 -72 -214 6 214 -59 0 0 -271zm345 133c0,-47 11,-82 33,-104 22,-23 56,-35 102,-35 46,0 80,12 102,35 22,23 33,58 33,106 0,48 -11,84 -33,107 -22,23 -56,35 -102,35 -46,0 -81,-12 -103,-35 -21,-23 -32,-60 -32,-109zm135 -92c-25,0 -43,7 -55,23 -12,15 -18,38 -18,69 0,33 6,58 18,73 11,16 30,24 55,24 25,0 43,-8 55,-23 12,-16 18,-40 18,-72 0,-32 -6,-56 -18,-71 -12,-15 -30,-23 -55,-23zm230 -41l0 162c0,25 5,43 14,53 9,10 25,15 47,15 23,0 38,-5 47,-15 10,-10 14,-27 14,-53l0 -162 57 0 0 164c0,19 -1,34 -4,46 -2,11 -6,20 -12,27 -11,13 -24,22 -41,28 -16,6 -36,9 -61,9 -24,0 -45,-3 -61,-9 -17,-6 -30,-15 -41,-28 -6,-7 -10,-16 -12,-27 -2,-11 -4,-26 -4,-46l0 -164 57 0zm342 271c-25,0 -44,-2 -56,-6 -13,-5 -24,-12 -34,-22 -9,-10 -15,-20 -19,-32 -3,-12 -5,-29 -5,-50l0 -161 57 0 0 159c0,16 1,27 2,34 1,6 4,11 7,15 6,7 12,11 20,14 8,3 19,4 33,4l67 0 0 45 -72 0zm226 -224l-66 0 0 177 66 0c25,0 42,-7 52,-19 9,-13 14,-36 14,-70 0,-33 -5,-56 -14,-69 -10,-13 -27,-19 -52,-19zm-124 -47l125 0c43,0 76,11 96,34 21,23 32,58 32,106 0,25 -4,46 -11,64 -7,18 -17,32 -31,43 -11,9 -22,15 -34,19 -13,3 -29,5 -51,5l-126 0 0 -271zm352 271l-60 0 0 -271 60 0 0 271zm56 -271l73 0 111 195 -3 -195 58 0 0 271 -66 0 -117 -205 3 205 -59 0 0 -271zm393 158l0 -48 135 0 0 161 -123 0c-23,0 -40,-2 -52,-6 -12,-3 -24,-9 -34,-18 -14,-11 -24,-25 -31,-43 -7,-18 -11,-39 -11,-64 0,-48 11,-83 31,-106 21,-23 53,-34 97,-34l123 0 0 47 -123 0c-22,0 -39,7 -49,21 -10,15 -15,38 -15,70 0,29 5,51 15,64 10,13 27,20 49,20l64 0 0 -64 -76 0zm440 -111c-21,0 -36,5 -47,15 -10,11 -16,27 -17,48l158 0 0 47 -159 0c0,24 5,41 15,51 10,11 27,16 50,16l94 0 0 47 -97 0c-21,0 -38,-2 -50,-5 -12,-4 -24,-10 -34,-19 -14,-11 -25,-25 -32,-43 -7,-18 -10,-39 -10,-64 0,-48 10,-83 31,-106 21,-23 53,-34 97,-34l95 0 0 47 -94 0zm143 -47l73 0 111 195 -3 -195 58 0 0 271 -66 0 -117 -205 3 205 -59 0 0 -271zm393 158l0 -48 135 0 0 161 -123 0c-22,0 -40,-2 -52,-6 -12,-3 -23,-9 -34,-18 -14,-11 -24,-25 -31,-43 -7,-18 -11,-39 -11,-64 0,-48 11,-83 32,-106 20,-23 53,-34 96,-34l123 0 0 47 -123 0c-22,0 -39,7 -49,21 -10,15 -15,38 -15,70 0,29 5,51 15,64 10,13 27,20 49,20l64 0 0 -64 -76 0zm242 113l-60 0 0 -271 60 0 0 271zm56 -271l73 0 111 195 -3 -195 58 0 0 271 -66 0 -117 -205 3 205 -59 0 0 -271zm406 47c-21,0 -36,5 -47,15 -10,11 -16,27 -17,48l158 0 0 47 -159 0c1,24 6,41 15,51 10,11 27,16 50,16l94 0 0 47 -97 0c-21,0 -38,-2 -50,-5 -12,-4 -23,-10 -34,-19 -14,-11 -24,-25 -31,-43 -7,-18 -11,-39 -11,-64 0,-48 11,-83 31,-106 21,-23 53,-34 97,-34l95 0 0 47 -94 0zm255 0c-20,0 -36,5 -46,15 -11,11 -17,27 -18,48l158 0 0 47 -158 0c0,24 5,41 15,51 10,11 26,16 49,16l94 0 0 47 -96 0c-22,0 -38,-2 -50,-5 -13,-4 -24,-10 -35,-19 -14,-11 -24,-25 -31,-43 -7,-18 -10,-39 -10,-64 0,-48 10,-83 31,-106 20,-23 53,-34 96,-34l95 0 0 47 -94 0zm271 1l-70 0 0 68 70 0c19,0 32,-2 40,-7 7,-5 11,-14 11,-27 0,-12 -4,-21 -11,-26 -7,-5 -21,-8 -40,-8zm-127 -48l140 0c33,0 57,6 72,19 16,14 23,34 23,62 0,21 -4,38 -14,51 -9,13 -23,22 -40,26l67 113 -64 0 -60 -107 -67 0 0 107 -57 0 0 -271zm513 48l-141 0c-15,0 -26,3 -33,9 -7,5 -11,14 -11,26 0,10 3,18 9,23 6,5 15,7 27,7l75 0c32,0 54,6 67,18 13,12 20,31 20,59 0,28 -8,48 -23,61 -15,13 -39,20 -72,20l-152 0 0 -48 143 0c16,0 28,-3 34,-7 7,-5 10,-13 10,-24 0,-11 -3,-19 -9,-24 -6,-5 -16,-7 -31,-7l-67 0c-32,0 -55,-7 -69,-19 -14,-13 -22,-32 -22,-59 0,-29 8,-50 23,-63 15,-14 39,-20 73,-20l149 0 0 48zm171 -48l62 0 62 208 53 -208 67 0 61 208 59 -208 58 0 -83 271 -70 0 -58 -203 -51 203 -69 0 -91 -271zm506 0l0 110 105 0 0 -110 57 0 0 271 -57 0 0 -113 -105 0 0 113 -57 0 0 -271 57 0zm200 133c0,-47 11,-82 34,-104 22,-23 56,-35 102,-35 46,0 80,12 102,35 22,23 33,58 33,106 0,48 -11,84 -33,107 -22,23 -56,35 -102,35 -47,0 -81,-12 -103,-35 -22,-23 -33,-60 -33,-109zm136 -92c-25,0 -43,7 -55,23 -12,15 -18,38 -18,69 0,33 5,58 17,73 12,16 30,24 56,24 24,0 43,-8 55,-23 12,-16 18,-40 18,-72 0,-32 -6,-56 -18,-71 -12,-15 -31,-23 -55,-23zm432 5c-24,0 -41,8 -51,23 -10,15 -16,39 -16,74 0,29 5,50 15,62 10,13 27,19 52,19l94 0 0 47 -97 0c-21,0 -38,-2 -50,-5 -12,-4 -24,-10 -34,-19 -14,-11 -25,-25 -32,-43 -6,-18 -10,-39 -10,-64 0,-48 10,-83 31,-106 21,-23 53,-34 97,-34l95 0 0 46 -94 0zm241 8l-39 104 80 0 -41 -104zm-28 -54l61 0 115 271 -63 0 -25 -65 -118 0 -24 65 -60 0 114 -271zm195 0l73 0 111 195 -3 -195 58 0 0 271 -66 0 -117 -205 3 205 -59 0 0 -271zm498 48l0 63 83 0c13,0 23,-2 29,-8 6,-5 9,-13 9,-23 0,-11 -3,-19 -9,-24 -6,-5 -16,-8 -29,-8l-83 0zm84 175c13,0 23,-3 29,-8 5,-5 8,-13 8,-24 0,-11 -3,-19 -9,-24 -6,-5 -15,-8 -28,-8l-84 0 0 64 84 0zm8 48l-149 0 0 -271 139 0c18,0 32,1 43,3 11,2 20,5 27,9 10,6 17,14 22,24 6,10 8,22 8,34 0,16 -3,28 -9,39 -7,10 -17,19 -31,26 14,6 24,14 31,24 7,10 10,23 10,38 0,25 -7,44 -22,56 -15,12 -38,18 -69,18zm192 -271l0 162c0,25 4,43 14,53 9,10 25,15 47,15 22,0 38,-5 47,-15 9,-10 14,-27 14,-53l0 -162 57 0 0 164c0,19 -1,34 -4,46 -2,11 -6,20 -12,27 -11,13 -24,22 -41,28 -16,6 -37,9 -61,9 -24,0 -45,-3 -61,-9 -17,-6 -31,-15 -41,-28 -6,-7 -10,-16 -12,-27 -3,-11 -4,-26 -4,-46l0 -164 57 0zm294 271l-59 0 0 -271 59 0 0 271zm164 0c-25,0 -44,-2 -56,-6 -13,-5 -24,-12 -33,-22 -9,-10 -16,-20 -19,-32 -4,-12 -6,-29 -6,-50l0 -161 57 0 0 159c0,16 1,27 2,34 2,6 4,11 8,15 5,7 12,11 20,14 7,3 18,4 32,4l67 0 0 45 -72 0zm226 -224l-66 0 0 177 66 0c25,0 42,-7 52,-19 10,-13 14,-36 14,-70 0,-33 -4,-56 -14,-69 -10,-13 -27,-19 -52,-19zm-123 -47l124 0c44,0 76,11 97,34 20,23 31,58 31,106 0,25 -4,46 -11,64 -7,18 -17,32 -31,43 -11,9 -22,15 -34,19 -12,3 -29,5 -50,5l-126 0 0 -271zm497 47l-88 0 0 -47 235 0 0 47 -88 0 0 224 -59 0 0 -224zm231 -47l0 110 105 0 0 -110 57 0 0 271 -57 0 0 -113 -105 0 0 113 -57 0 0 -271 57 0zm330 47c-21,0 -36,5 -47,15 -10,11 -16,27 -17,48l158 0 0 47 -159 0c1,24 6,41 15,51 10,11 27,16 50,16l94 0 0 47 -97 0c-21,0 -38,-2 -50,-5 -12,-4 -24,-10 -34,-19 -14,-11 -24,-25 -31,-43 -7,-18 -11,-39 -11,-64 0,-48 11,-83 31,-106 21,-23 53,-34 97,-34l95 0 0 47 -94 0zm290 -47l72 0 111 195 -3 -195 59 0 0 271 -66 0 -117 -205 2 205 -58 0 0 -271zm400 54l-40 104 81 0 -41 -104zm-28 -54l60 0 116 271 -64 0 -25 -65 -118 0 -24 65 -60 0 115 -271zm219 47l-87 0 0 -47 234 0 0 47 -88 0 0 224 -59 0 0 -224zm235 224l-60 0 0 -271 60 0 0 271zm39 -138c0,-47 11,-82 34,-104 22,-23 56,-35 101,-35 46,0 80,12 103,35 22,23 33,58 33,106 0,48 -11,84 -33,107 -23,23 -57,35 -103,35 -46,0 -80,-12 -102,-35 -22,-23 -33,-60 -33,-109zm135 -92c-24,0 -42,7 -54,23 -13,15 -19,38 -19,69 0,33 6,58 18,73 12,16 30,24 55,24 25,0 44,-8 56,-23 12,-16 18,-40 18,-72 0,-32 -6,-56 -18,-71 -12,-15 -31,-23 -56,-23zm175 -41l72 0 111 195 -3 -195 58 0 0 271 -66 0 -116 -205 2 205 -58 0 0 -271z"/>
   <path class="fil1" d="M6142 6483l0 -463 360 0 0 79 -254 0 0 109 219 0 0 79 -219 0 0 196 -106 0zm447 0l0 -463 223 0c56,0 97,5 122,13 26,8 46,23 61,44 16,21 23,46 23,73 0,35 -11,63 -34,86 -23,23 -58,37 -104,43 23,12 42,24 57,39 15,14 35,39 60,75l64 90 -127 0 -76 -101c-27,-36 -46,-59 -56,-68 -10,-9 -21,-16 -32,-19 -11,-3 -29,-5 -53,-5l-22 0 0 193 -106 0zm106 -267l79 0c50,0 82,-2 95,-6 12,-3 22,-10 29,-19 8,-9 11,-21 11,-35 0,-16 -5,-28 -14,-38 -9,-9 -23,-15 -40,-18 -9,-1 -34,-1 -77,-1l-83 0 0 117zm421 267l0 -89 101 0 0 89 -101 0zm744 -171l103 28c-16,51 -42,89 -79,114 -36,24 -83,37 -139,37 -70,0 -127,-21 -172,-63 -45,-42 -67,-100 -67,-173 0,-77 23,-136 68,-179 45,-43 104,-64 177,-64 65,0 117,17 157,50 24,20 42,49 54,86l-105 22c-6,-24 -19,-43 -39,-57 -20,-14 -44,-21 -72,-21 -39,0 -70,12 -95,37 -24,25 -36,64 -36,120 0,58 12,100 36,124 24,25 55,38 93,38 28,0 53,-8 73,-24 20,-16 35,-41 43,-75zm172 -58c0,-47 8,-86 24,-118 12,-24 28,-45 49,-64 21,-19 43,-33 68,-42 32,-12 70,-18 113,-18 77,0 139,21 186,64 46,42 69,101 69,176 0,75 -23,134 -69,176 -46,42 -108,63 -185,63 -78,0 -140,-21 -186,-63 -46,-42 -69,-100 -69,-174zm109 -3c0,53 14,93 41,120 28,27 63,40 105,40 42,0 77,-13 104,-40 27,-27 41,-67 41,-121 0,-53 -13,-93 -40,-119 -26,-26 -61,-39 -105,-39 -44,0 -79,13 -106,40 -26,26 -40,66 -40,119zm483 232l0 -463 103 0 215 310 0 -310 99 0 0 463 -107 0 -212 -304 0 304 -98 0zm864 -171l103 28c-16,51 -42,89 -79,114 -36,24 -83,37 -139,37 -70,0 -127,-21 -172,-63 -45,-42 -67,-100 -67,-173 0,-77 22,-136 67,-179 45,-43 105,-64 178,-64 64,0 117,17 157,50 24,20 41,49 53,86l-104 22c-7,-24 -20,-43 -39,-57 -20,-14 -44,-21 -72,-21 -39,0 -71,12 -95,37 -24,25 -36,64 -36,120 0,58 12,100 36,124 24,25 55,38 93,38 28,0 52,-8 73,-24 20,-16 34,-41 43,-75zm194 171l0 -463 388 0 0 79 -282 0 0 102 262 0 0 78 -262 0 0 126 292 0 0 78 -398 0zm485 0l0 -463 106 0 0 463 -106 0zm542 -171l103 28c-16,51 -42,89 -79,114 -36,24 -83,37 -139,37 -70,0 -127,-21 -172,-63 -45,-42 -67,-100 -67,-173 0,-77 22,-136 67,-179 46,-43 105,-64 178,-64 65,0 117,17 157,50 24,20 41,49 53,86l-104 22c-7,-24 -19,-43 -39,-57 -20,-14 -44,-21 -72,-21 -39,0 -70,12 -95,37 -24,25 -36,64 -36,120 0,58 12,100 36,124 24,25 55,38 93,38 28,0 52,-8 73,-24 20,-16 35,-41 43,-75zm666 171l-114 0 -45 -105 -211 0 -43 105 -113 0 204 -463 112 0 210 463zm-194 -184l-73 -171 -70 171 143 0zm229 -45c0,-47 8,-86 24,-118 12,-24 28,-45 49,-64 20,-19 43,-33 68,-42 32,-12 70,-18 113,-18 77,0 139,21 185,64 47,42 70,101 70,176 0,75 -23,134 -69,176 -46,42 -108,63 -185,63 -78,0 -140,-21 -186,-63 -46,-42 -69,-100 -69,-174zm109 -3c0,53 14,93 41,120 28,27 63,40 105,40 42,0 77,-13 104,-40 27,-27 41,-67 41,-121 0,-53 -13,-93 -40,-119 -26,-26 -61,-39 -105,-39 -44,0 -79,13 -106,40 -27,26 -40,66 -40,119zm686 232l0 -463 223 0c56,0 97,5 122,13 26,8 46,23 61,44 16,21 23,46 23,73 0,35 -11,63 -34,86 -23,23 -58,37 -104,43 23,12 42,24 57,39 15,14 35,39 60,75l64 90 -127 0 -76 -101c-27,-36 -46,-59 -56,-68 -10,-9 -20,-16 -32,-19 -11,-3 -29,-5 -53,-5l-22 0 0 193 -106 0zm106 -267l79 0c51,0 82,-2 95,-6 12,-3 22,-10 30,-19 7,-9 10,-21 10,-35 0,-16 -4,-28 -14,-38 -9,-9 -23,-15 -40,-18 -8,-1 -34,-1 -77,-1l-83 0 0 117zm401 38c0,-47 8,-86 24,-118 12,-24 28,-45 49,-64 21,-19 43,-33 68,-42 33,-12 70,-18 113,-18 77,0 139,21 186,64 46,42 69,101 69,176 0,75 -23,134 -69,176 -46,42 -107,63 -185,63 -78,0 -140,-21 -186,-63 -46,-42 -69,-100 -69,-174zm109 -3c0,53 14,93 42,120 27,27 62,40 104,40 43,0 77,-13 104,-40 28,-27 41,-67 41,-121 0,-53 -13,-93 -40,-119 -26,-26 -61,-39 -105,-39 -43,0 -79,13 -105,40 -27,26 -41,66 -41,119zm483 -231l193 0c44,0 77,3 100,9 30,8 57,22 79,43 22,20 38,45 50,75 11,29 17,66 17,109 0,38 -6,71 -16,99 -13,33 -32,60 -56,81 -19,16 -44,28 -75,37 -23,7 -54,10 -93,10l-199 0 0 -463zm106 79l0 306 79 0c29,0 51,-2 64,-5 17,-3 31,-10 42,-19 12,-9 21,-24 28,-44 7,-21 11,-49 11,-85 0,-36 -4,-63 -11,-82 -7,-20 -17,-34 -30,-45 -13,-11 -29,-18 -49,-22 -15,-3 -44,-4 -86,-4l-48 0zm423 384l0 -463 223 0c56,0 97,5 122,13 26,8 46,23 61,44 16,21 23,46 23,73 0,35 -11,63 -34,86 -23,23 -58,37 -104,43 23,12 42,24 57,39 15,14 35,39 60,75l64 90 -127 0 -76 -101c-27,-36 -46,-59 -56,-68 -10,-9 -21,-16 -32,-19 -11,-3 -29,-5 -53,-5l-22 0 0 193 -106 0zm106 -267l79 0c50,0 82,-2 95,-6 12,-3 22,-10 29,-19 7,-9 11,-21 11,-35 0,-16 -5,-28 -14,-38 -10,-9 -23,-15 -40,-18 -9,-1 -34,-1 -77,-1l-83 0 0 117zm419 267l0 -463 106 0 0 463 -106 0zm451 -170l0 -78 228 0 0 184c-22,19 -54,36 -96,51 -42,14 -85,21 -128,21 -55,0 -103,-10 -143,-30 -41,-20 -72,-50 -92,-87 -21,-38 -31,-79 -31,-124 0,-48 12,-91 34,-129 23,-37 57,-66 101,-86 34,-15 75,-23 125,-23 65,0 116,12 153,36 37,24 60,58 71,100l-106 18c-7,-23 -21,-41 -42,-54 -20,-13 -45,-20 -76,-20 -46,0 -83,13 -110,39 -27,26 -41,64 -41,115 0,55 14,97 42,124 27,27 64,41 108,41 22,0 45,-4 67,-11 22,-8 41,-17 57,-28l0 -59 -121 0zm326 -293l106 0 0 251c0,40 2,66 4,77 5,19 15,35 32,46 17,12 40,17 70,17 29,0 52,-5 67,-16 15,-11 24,-24 27,-40 3,-16 5,-42 5,-79l0 -256 106 0 0 244c0,55 -3,94 -9,117 -5,23 -16,43 -31,59 -15,15 -36,28 -62,37 -25,10 -59,14 -100,14 -50,0 -88,-5 -114,-15 -25,-10 -46,-23 -61,-40 -15,-16 -25,-33 -29,-51 -7,-27 -11,-66 -11,-118l0 -247zm529 463l0 -463 388 0 0 79 -282 0 0 102 263 0 0 78 -263 0 0 126 293 0 0 78 -399 0zm461 -150l103 -9c6,31 19,53 38,67 19,14 44,22 76,22 34,0 60,-7 77,-20 17,-12 26,-27 26,-44 0,-11 -4,-20 -11,-28 -7,-8 -20,-14 -38,-20 -12,-4 -40,-11 -84,-20 -57,-13 -96,-28 -119,-46 -32,-26 -48,-57 -48,-94 0,-23 7,-45 22,-66 15,-20 37,-36 66,-47 28,-11 62,-16 103,-16 65,0 115,13 148,39 33,25 50,60 52,102l-106 4c-5,-24 -14,-41 -29,-52 -15,-10 -37,-15 -67,-15 -30,0 -54,5 -71,16 -12,8 -17,17 -17,29 0,11 5,21 16,28 13,10 45,21 97,31 51,11 89,22 114,34 24,11 44,27 57,47 14,20 21,44 21,73 0,27 -8,52 -25,75 -16,23 -40,40 -71,51 -30,12 -68,17 -114,17 -66,0 -117,-13 -152,-40 -36,-27 -57,-66 -64,-118zm-9648 701l103 28c-16,51 -42,89 -79,113 -37,25 -83,37 -139,37 -70,0 -127,-21 -172,-63 -45,-42 -68,-99 -68,-172 0,-77 23,-137 68,-179 45,-43 104,-64 178,-64 64,0 116,16 156,50 24,20 42,48 54,85l-105 22c-6,-24 -19,-43 -38,-56 -20,-14 -44,-21 -72,-21 -39,0 -71,12 -95,37 -24,24 -36,64 -36,119 0,59 12,100 35,125 24,25 55,37 94,37 28,0 52,-8 72,-23 21,-16 35,-41 44,-75zm172 -58c0,-47 8,-87 24,-119 11,-23 28,-45 48,-63 21,-19 44,-33 68,-42 33,-12 71,-18 113,-18 78,0 140,21 186,63 46,43 70,102 70,177 0,75 -23,133 -69,176 -46,42 -108,63 -185,63 -78,0 -140,-21 -186,-63 -46,-42 -69,-100 -69,-174zm109 -3c0,52 13,92 41,119 27,27 62,41 105,41 42,0 77,-14 104,-40 27,-27 41,-68 41,-121 0,-53 -14,-93 -40,-119 -27,-26 -62,-39 -105,-39 -44,0 -79,13 -106,39 -27,27 -40,67 -40,120zm485 232l0 -459 106 0 0 380 263 0 0 79 -369 0zm448 0l0 -459 106 0 0 380 263 0 0 79 -369 0zm444 0l0 -463 388 0 0 78 -282 0 0 103 263 0 0 78 -263 0 0 125 293 0 0 79 -399 0zm733 -170l0 -78 228 0 0 184c-23,19 -55,36 -97,50 -42,15 -84,22 -128,22 -54,0 -102,-10 -143,-30 -41,-21 -71,-50 -92,-88 -20,-38 -31,-79 -31,-123 0,-49 12,-91 35,-129 23,-37 56,-66 100,-86 34,-16 76,-23 126,-23 65,0 116,12 152,36 37,24 60,57 71,100l-106 17c-7,-22 -21,-40 -41,-54 -20,-13 -46,-19 -76,-19 -47,0 -83,13 -111,39 -27,26 -40,64 -40,115 0,55 13,96 41,124 28,27 64,41 109,41 22,0 44,-4 66,-12 23,-7 42,-17 58,-28l0 -58 -121 0zm326 170l0 -463 388 0 0 78 -282 0 0 103 262 0 0 78 -262 0 0 125 292 0 0 79 -398 0zm873 -229c0,-47 8,-87 24,-119 12,-23 28,-45 49,-63 21,-19 43,-33 68,-42 32,-12 70,-18 113,-18 77,0 139,21 186,63 46,43 69,102 69,177 0,75 -23,133 -69,176 -46,42 -108,63 -185,63 -78,0 -140,-21 -186,-63 -46,-42 -69,-100 -69,-174zm109 -3c0,52 14,92 41,119 28,27 63,41 105,41 42,0 77,-14 104,-40 27,-27 41,-68 41,-121 0,-53 -13,-93 -40,-119 -26,-26 -61,-39 -105,-39 -44,0 -79,13 -106,39 -26,27 -40,67 -40,120zm483 232l0 -463 360 0 0 78 -254 0 0 110 220 0 0 78 -220 0 0 197 -106 0zm854 0l0 -463 388 0 0 78 -282 0 0 103 262 0 0 78 -262 0 0 125 293 0 0 79 -399 0zm489 0l0 -463 102 0 216 310 0 -310 98 0 0 463 -106 0 -212 -304 0 304 -98 0zm773 -170l0 -78 227 0 0 184c-22,19 -54,36 -96,50 -42,15 -85,22 -128,22 -55,0 -102,-10 -143,-30 -41,-21 -71,-50 -92,-88 -20,-38 -31,-79 -31,-123 0,-49 12,-91 35,-129 23,-37 56,-66 100,-86 34,-16 76,-23 126,-23 65,0 116,12 152,36 37,24 60,57 71,100l-106 17c-7,-22 -21,-40 -41,-54 -21,-13 -46,-19 -77,-19 -46,0 -82,13 -110,39 -27,26 -41,64 -41,115 0,55 14,96 42,124 28,27 64,41 108,41 23,0 45,-4 67,-12 22,-7 41,-17 57,-28l0 -58 -120 0zm322 170l0 -463 106 0 0 463 -106 0zm207 0l0 -463 103 0 216 310 0 -310 98 0 0 463 -106 0 -213 -304 0 304 -98 0zm529 0l0 -463 388 0 0 78 -282 0 0 103 262 0 0 78 -262 0 0 125 292 0 0 79 -398 0zm489 0l0 -463 388 0 0 78 -282 0 0 103 262 0 0 78 -262 0 0 125 292 0 0 79 -398 0zm488 0l0 -463 223 0c56,0 97,4 122,13 26,8 46,23 61,44 16,21 23,45 23,73 0,34 -11,63 -34,86 -23,22 -58,37 -104,42 23,12 42,25 57,39 15,14 35,39 60,75l64 91 -127 0 -76 -101c-27,-36 -46,-59 -56,-68 -10,-9 -20,-16 -32,-19 -11,-4 -29,-6 -53,-6l-22 0 0 194 -106 0zm106 -267l79 0c50,0 82,-2 95,-6 12,-4 22,-10 29,-19 8,-10 11,-21 11,-35 0,-16 -5,-28 -14,-38 -9,-10 -23,-16 -40,-18 -8,-1 -34,-2 -77,-2l-83 0 0 118zm419 267l0 -463 107 0 0 463 -107 0zm208 0l0 -463 102 0 216 310 0 -310 98 0 0 463 -106 0 -212 -304 0 304 -98 0zm773 -170l0 -78 227 0 0 184c-22,19 -54,36 -96,50 -42,15 -85,22 -128,22 -55,0 -102,-10 -143,-30 -41,-21 -71,-50 -92,-88 -20,-38 -31,-79 -31,-123 0,-49 12,-91 35,-129 23,-37 56,-66 100,-86 34,-16 76,-23 126,-23 65,0 116,12 152,36 37,24 60,57 71,100l-106 17c-7,-22 -21,-40 -41,-54 -21,-13 -46,-19 -77,-19 -46,0 -82,13 -110,39 -27,26 -41,64 -41,115 0,55 14,96 42,124 28,27 64,41 109,41 22,0 44,-4 66,-12 22,-7 41,-17 57,-28l0 -58 -120 0z"/>
  </g>
 </g>
</svg>
